<svg width="1280" height="640" viewBox="0 0 1280 640" fill="none" xmlns="http://www.w3.org/2000/svg">
  <rect width="1280" height="640" fill="#F5EBDD"/>
  <rect x="54" y="54" width="1172" height="532" rx="28" fill="#111111"/>
  <rect x="90" y="92" width="520" height="456" rx="24" fill="#D96C3D"/>
  <rect x="636" y="92" width="554" height="456" rx="24" fill="#F8F1E7"/>
  <path d="M194 400C194 316.8 261.8 249 345 249H461V457H345C261.8 457 194 389.2 194 306V400Z" fill="#111111"/>
  <path d="M462 249H505C588.2 249 656 316.8 656 400V457H462V249Z" fill="#111111"/>
  <circle cx="401" cy="341" r="32" fill="#F8F1E7"/>
  <path d="M748 188H1100" stroke="#111111" stroke-width="18" stroke-linecap="round"/>
  <path d="M748 252H1060" stroke="#111111" stroke-width="18" stroke-linecap="round"/>
  <path d="M748 316H1118" stroke="#111111" stroke-width="18" stroke-linecap="round"/>
  <path d="M748 380H1032" stroke="#111111" stroke-width="18" stroke-linecap="round"/>
  <text x="748" y="478" fill="#111111" font-family="Georgia, serif" font-size="76" font-weight="700">Story Forge Pro</text>
  <text x="748" y="536" fill="#5B524B" font-family="Helvetica, Arial, sans-serif" font-size="28">One-click AI studio for novels and screenplays</text>
</svg>
