<svg width="1280" height="640" viewBox="0 0 1280 640" fill="none" xmlns="http://www.w3.org/2000/svg">
  <rect width="1280" height="640" fill="#F5EBDD"/>
  <rect x="54" y="54" width="1172" height="532" rx="28" fill="#111111"/>
  <rect x="90" y="92" width="520" height="456" rx="24" fill="#D96C3D"/>
  <rect x="636" y="92" width="554" height="456" rx="24" fill="#F8F1E7"/>
  <circle cx="261" cy="222" r="78" fill="#111111"/>
  <rect x="311" y="174" width="144" height="176" rx="24" fill="#111111"/>
  <rect x="222" y="340" width="274" height="46" rx="23" fill="#111111"/>
  <rect x="222" y="404" width="234" height="30" rx="15" fill="#111111" opacity="0.88"/>
  <circle cx="262" cy="222" r="24" fill="#F8F1E7"/>
  <path d="M740 176H1104" stroke="#111111" stroke-width="18" stroke-linecap="round"/>
  <path d="M740 240H1038" stroke="#111111" stroke-width="18" stroke-linecap="round"/>
  <path d="M740 304H1118" stroke="#111111" stroke-width="18" stroke-linecap="round"/>
  <path d="M740 368H1008" stroke="#111111" stroke-width="18" stroke-linecap="round"/>
  <text x="740" y="460" fill="#111111" font-family="Georgia, serif" font-size="68" font-weight="700">Story Forge</text>
  <text x="740" y="528" fill="#111111" font-family="Georgia, serif" font-size="68" font-weight="700">Pro</text>
  <text x="740" y="574" fill="#5B524B" font-family="Helvetica, Arial, sans-serif" font-size="24">One-click studio for novels, scripts,</text>
  <text x="740" y="606" fill="#5B524B" font-family="Helvetica, Arial, sans-serif" font-size="24">and beginner-friendly story workflows</text>
</svg>
